<mxfile host="app.diagrams.net" modified="2024-05-05T02:48:57.436Z" agent="Mozilla/5.0 (Windows NT 10.0; Win64; x64) AppleWebKit/537.36 (KHTML, like Gecko) Chrome/124.0.0.0 Safari/537.36" etag="cdrR3npW0JBBPrzCOhyI" version="24.3.1" type="google">
  <diagram name="Page-1" id="_ZrC7_AyCr-9D5e1H9Fy">
    <mxGraphModel dx="2921" dy="706" grid="1" gridSize="10" guides="1" tooltips="1" connect="1" arrows="1" fold="1" page="1" pageScale="1" pageWidth="850" pageHeight="1100" math="0" shadow="0">
      <root>
        <mxCell id="0" />
        <mxCell id="1" parent="0" />
        <mxCell id="Wf2MEIRh0uXB4MCnBjx5-79" value="Actor" style="shape=umlActor;verticalLabelPosition=bottom;verticalAlign=top;html=1;outlineConnect=0;" parent="1" vertex="1">
          <mxGeometry x="-1070" y="80" width="30" height="60" as="geometry" />
        </mxCell>
        <mxCell id="Wf2MEIRh0uXB4MCnBjx5-80" value="" style="edgeStyle=orthogonalEdgeStyle;rounded=0;orthogonalLoop=1;jettySize=auto;html=1;endArrow=none;endFill=0;dashed=1;" parent="1" source="Wf2MEIRh0uXB4MCnBjx5-79" target="Wf2MEIRh0uXB4MCnBjx5-82" edge="1">
          <mxGeometry relative="1" as="geometry">
            <mxPoint x="-1075" y="721.6000366210938" as="targetPoint" />
            <mxPoint x="-1075" y="140" as="sourcePoint" />
          </mxGeometry>
        </mxCell>
        <mxCell id="Wf2MEIRh0uXB4MCnBjx5-81" style="edgeStyle=orthogonalEdgeStyle;rounded=0;orthogonalLoop=1;jettySize=auto;html=1;exitX=1;exitY=0.25;exitDx=0;exitDy=0;entryX=0;entryY=0.25;entryDx=0;entryDy=0;" parent="1" source="Wf2MEIRh0uXB4MCnBjx5-82" target="Wf2MEIRh0uXB4MCnBjx5-88" edge="1">
          <mxGeometry relative="1" as="geometry" />
        </mxCell>
        <mxCell id="Wf2MEIRh0uXB4MCnBjx5-82" value="" style="rounded=0;whiteSpace=wrap;html=1;" parent="1" vertex="1">
          <mxGeometry x="-1060" y="190" width="10" height="60" as="geometry" />
        </mxCell>
        <mxCell id="Wf2MEIRh0uXB4MCnBjx5-83" style="edgeStyle=orthogonalEdgeStyle;rounded=0;orthogonalLoop=1;jettySize=auto;html=1;exitX=1;exitY=0.25;exitDx=0;exitDy=0;entryX=0;entryY=0.25;entryDx=0;entryDy=0;" parent="1" source="Wf2MEIRh0uXB4MCnBjx5-88" target="Wf2MEIRh0uXB4MCnBjx5-86" edge="1">
          <mxGeometry relative="1" as="geometry" />
        </mxCell>
        <mxCell id="Wf2MEIRh0uXB4MCnBjx5-84" style="edgeStyle=orthogonalEdgeStyle;rounded=0;orthogonalLoop=1;jettySize=auto;html=1;entryX=0.5;entryY=0;entryDx=0;entryDy=0;dashed=1;endArrow=none;endFill=0;" parent="1" source="Wf2MEIRh0uXB4MCnBjx5-85" target="Wf2MEIRh0uXB4MCnBjx5-88" edge="1">
          <mxGeometry relative="1" as="geometry" />
        </mxCell>
        <mxCell id="Wf2MEIRh0uXB4MCnBjx5-85" value="mGUI: MainGUI" style="rounded=0;whiteSpace=wrap;html=1;" parent="1" vertex="1">
          <mxGeometry x="-930" y="80" width="120" height="60" as="geometry" />
        </mxCell>
        <mxCell id="Wf2MEIRh0uXB4MCnBjx5-86" value="&lt;font style=&quot;font-size: 11px;&quot;&gt;budgetGUI: BudgetPlannerGUI&lt;/font&gt;" style="rounded=0;whiteSpace=wrap;html=1;" parent="1" vertex="1">
          <mxGeometry x="-740" y="190" width="120" height="60" as="geometry" />
        </mxCell>
        <mxCell id="Wf2MEIRh0uXB4MCnBjx5-87" style="edgeStyle=orthogonalEdgeStyle;rounded=0;orthogonalLoop=1;jettySize=auto;html=1;exitX=1;exitY=0.75;exitDx=0;exitDy=0;entryX=0;entryY=0.25;entryDx=0;entryDy=0;" parent="1" source="Wf2MEIRh0uXB4MCnBjx5-88" target="Wf2MEIRh0uXB4MCnBjx5-100" edge="1">
          <mxGeometry relative="1" as="geometry" />
        </mxCell>
        <mxCell id="ocq1xxq8ZUlCfZxN5RcO-3" style="edgeStyle=orthogonalEdgeStyle;rounded=0;orthogonalLoop=1;jettySize=auto;html=1;dashed=1;endArrow=none;endFill=0;" parent="1" source="Wf2MEIRh0uXB4MCnBjx5-88" edge="1">
          <mxGeometry relative="1" as="geometry">
            <mxPoint x="-870" y="723.5555419921875" as="targetPoint" />
          </mxGeometry>
        </mxCell>
        <mxCell id="Wf2MEIRh0uXB4MCnBjx5-88" value="" style="rounded=0;whiteSpace=wrap;html=1;" parent="1" vertex="1">
          <mxGeometry x="-875" y="190" width="10" height="100" as="geometry" />
        </mxCell>
        <mxCell id="Wf2MEIRh0uXB4MCnBjx5-89" value="" style="edgeStyle=orthogonalEdgeStyle;rounded=0;orthogonalLoop=1;jettySize=auto;html=1;dashed=1;endArrow=none;endFill=0;" parent="1" source="Wf2MEIRh0uXB4MCnBjx5-86" target="Wf2MEIRh0uXB4MCnBjx5-91" edge="1">
          <mxGeometry relative="1" as="geometry">
            <mxPoint x="-680" y="600" as="targetPoint" />
            <mxPoint x="-680" y="250" as="sourcePoint" />
          </mxGeometry>
        </mxCell>
        <mxCell id="Wf2MEIRh0uXB4MCnBjx5-120" style="edgeStyle=orthogonalEdgeStyle;rounded=0;orthogonalLoop=1;jettySize=auto;html=1;dashed=1;endArrow=none;endFill=0;" parent="1" source="Wf2MEIRh0uXB4MCnBjx5-91" edge="1">
          <mxGeometry relative="1" as="geometry">
            <mxPoint x="-680" y="710" as="targetPoint" />
          </mxGeometry>
        </mxCell>
        <mxCell id="Wf2MEIRh0uXB4MCnBjx5-91" value="" style="rounded=0;whiteSpace=wrap;html=1;" parent="1" vertex="1">
          <mxGeometry x="-685" y="300" width="10" height="160" as="geometry" />
        </mxCell>
        <mxCell id="Wf2MEIRh0uXB4MCnBjx5-92" value="data: Financial Data" style="rounded=0;whiteSpace=wrap;html=1;" parent="1" vertex="1">
          <mxGeometry x="-320" y="80" width="120" height="60" as="geometry" />
        </mxCell>
        <mxCell id="Wf2MEIRh0uXB4MCnBjx5-93" value="" style="edgeStyle=orthogonalEdgeStyle;rounded=0;orthogonalLoop=1;jettySize=auto;html=1;endArrow=none;endFill=0;dashed=1;" parent="1" source="Wf2MEIRh0uXB4MCnBjx5-82" target="Wf2MEIRh0uXB4MCnBjx5-95" edge="1">
          <mxGeometry relative="1" as="geometry">
            <mxPoint x="-1055" y="711.6000366210938" as="targetPoint" />
            <mxPoint x="-1055" y="250" as="sourcePoint" />
          </mxGeometry>
        </mxCell>
        <mxCell id="Wf2MEIRh0uXB4MCnBjx5-94" style="edgeStyle=orthogonalEdgeStyle;rounded=0;orthogonalLoop=1;jettySize=auto;html=1;exitX=1;exitY=0.25;exitDx=0;exitDy=0;entryX=0;entryY=0.25;entryDx=0;entryDy=0;" parent="1" source="Wf2MEIRh0uXB4MCnBjx5-95" target="Wf2MEIRh0uXB4MCnBjx5-91" edge="1">
          <mxGeometry relative="1" as="geometry">
            <Array as="points">
              <mxPoint x="-900" y="315" />
              <mxPoint x="-900" y="340" />
            </Array>
          </mxGeometry>
        </mxCell>
        <mxCell id="Wf2MEIRh0uXB4MCnBjx5-95" value="" style="rounded=0;whiteSpace=wrap;html=1;" parent="1" vertex="1">
          <mxGeometry x="-1060" y="300" width="10" height="30" as="geometry" />
        </mxCell>
        <mxCell id="Wf2MEIRh0uXB4MCnBjx5-96" value="" style="edgeStyle=orthogonalEdgeStyle;rounded=0;orthogonalLoop=1;jettySize=auto;html=1;dashed=1;endArrow=none;endFill=0;" parent="1" source="Wf2MEIRh0uXB4MCnBjx5-92" target="Wf2MEIRh0uXB4MCnBjx5-97" edge="1">
          <mxGeometry relative="1" as="geometry">
            <mxPoint x="-260" y="600" as="targetPoint" />
            <mxPoint x="-260" y="140" as="sourcePoint" />
          </mxGeometry>
        </mxCell>
        <mxCell id="Wf2MEIRh0uXB4MCnBjx5-122" style="edgeStyle=orthogonalEdgeStyle;rounded=0;orthogonalLoop=1;jettySize=auto;html=1;dashed=1;endArrow=none;endFill=0;" parent="1" source="Wf2MEIRh0uXB4MCnBjx5-97" edge="1">
          <mxGeometry relative="1" as="geometry">
            <mxPoint x="-260" y="740" as="targetPoint" />
          </mxGeometry>
        </mxCell>
        <mxCell id="Wf2MEIRh0uXB4MCnBjx5-97" value="" style="rounded=0;whiteSpace=wrap;html=1;" parent="1" vertex="1">
          <mxGeometry x="-265" y="399" width="10" height="60" as="geometry" />
        </mxCell>
        <mxCell id="Wf2MEIRh0uXB4MCnBjx5-98" value="4: contribute(amount)" style="text;html=1;align=center;verticalAlign=middle;whiteSpace=wrap;rounded=0;" parent="1" vertex="1">
          <mxGeometry x="-865" y="325" width="164.5" height="10" as="geometry" />
        </mxCell>
        <mxCell id="Wf2MEIRh0uXB4MCnBjx5-99" value="2: new()" style="text;html=1;align=center;verticalAlign=middle;whiteSpace=wrap;rounded=0;" parent="1" vertex="1">
          <mxGeometry x="-831" y="190" width="60" height="10" as="geometry" />
        </mxCell>
        <mxCell id="Wf2MEIRh0uXB4MCnBjx5-100" value="" style="rounded=0;whiteSpace=wrap;html=1;" parent="1" vertex="1">
          <mxGeometry x="-685" y="260" width="10" height="20" as="geometry" />
        </mxCell>
        <mxCell id="Wf2MEIRh0uXB4MCnBjx5-101" value="3: show()" style="text;html=1;align=center;verticalAlign=middle;whiteSpace=wrap;rounded=0;" parent="1" vertex="1">
          <mxGeometry x="-870.5" y="270" width="171" height="10" as="geometry" />
        </mxCell>
        <mxCell id="Wf2MEIRh0uXB4MCnBjx5-102" value="1: openBudgetPlannerGUI()" style="text;html=1;align=center;verticalAlign=middle;whiteSpace=wrap;rounded=0;" parent="1" vertex="1">
          <mxGeometry x="-1040" y="180" width="150" height="10" as="geometry" />
        </mxCell>
        <mxCell id="Wf2MEIRh0uXB4MCnBjx5-109" value="" style="edgeStyle=orthogonalEdgeStyle;rounded=0;orthogonalLoop=1;jettySize=auto;html=1;endArrow=none;endFill=0;dashed=1;" parent="1" source="Wf2MEIRh0uXB4MCnBjx5-95" edge="1">
          <mxGeometry relative="1" as="geometry">
            <mxPoint x="-1055" y="440" as="targetPoint" />
            <mxPoint x="-1055" y="330" as="sourcePoint" />
          </mxGeometry>
        </mxCell>
        <mxCell id="Wf2MEIRh0uXB4MCnBjx5-119" style="edgeStyle=orthogonalEdgeStyle;rounded=0;orthogonalLoop=1;jettySize=auto;html=1;dashed=1;endArrow=none;endFill=0;" parent="1" edge="1">
          <mxGeometry relative="1" as="geometry">
            <mxPoint x="-1055" y="710" as="targetPoint" />
            <mxPoint x="-1055" y="425" as="sourcePoint" />
          </mxGeometry>
        </mxCell>
        <mxCell id="Wf2MEIRh0uXB4MCnBjx5-112" style="edgeStyle=orthogonalEdgeStyle;rounded=0;orthogonalLoop=1;jettySize=auto;html=1;exitX=0.5;exitY=1;exitDx=0;exitDy=0;" parent="1" edge="1">
          <mxGeometry relative="1" as="geometry">
            <mxPoint x="-490" y="400" as="sourcePoint" />
            <mxPoint x="-490" y="400" as="targetPoint" />
          </mxGeometry>
        </mxCell>
        <mxCell id="Wf2MEIRh0uXB4MCnBjx5-113" value="6: display updated list" style="text;html=1;align=center;verticalAlign=middle;whiteSpace=wrap;rounded=0;" parent="1" vertex="1">
          <mxGeometry x="-630" y="425" width="130" height="10" as="geometry" />
        </mxCell>
        <mxCell id="Wf2MEIRh0uXB4MCnBjx5-114" value="5: value updated" style="text;html=1;align=center;verticalAlign=middle;whiteSpace=wrap;rounded=0;" parent="1" vertex="1">
          <mxGeometry x="-410" y="389" width="100" height="10" as="geometry" />
        </mxCell>
        <mxCell id="Wf2MEIRh0uXB4MCnBjx5-115" style="edgeStyle=orthogonalEdgeStyle;rounded=0;orthogonalLoop=1;jettySize=auto;html=1;exitX=0;exitY=0.75;exitDx=0;exitDy=0;entryX=1.5;entryY=0.875;entryDx=0;entryDy=0;entryPerimeter=0;dashed=1;" parent="1" source="Wf2MEIRh0uXB4MCnBjx5-97" target="Wf2MEIRh0uXB4MCnBjx5-91" edge="1">
          <mxGeometry relative="1" as="geometry" />
        </mxCell>
        <mxCell id="ocq1xxq8ZUlCfZxN5RcO-1" style="edgeStyle=orthogonalEdgeStyle;rounded=0;orthogonalLoop=1;jettySize=auto;html=1;exitX=1;exitY=0.75;exitDx=0;exitDy=0;entryX=0.222;entryY=0.144;entryDx=0;entryDy=0;entryPerimeter=0;" parent="1" source="Wf2MEIRh0uXB4MCnBjx5-91" target="Wf2MEIRh0uXB4MCnBjx5-97" edge="1">
          <mxGeometry relative="1" as="geometry">
            <Array as="points">
              <mxPoint x="-675" y="360" />
              <mxPoint x="-470" y="360" />
              <mxPoint x="-470" y="408" />
            </Array>
          </mxGeometry>
        </mxCell>
      </root>
    </mxGraphModel>
  </diagram>
</mxfile>
